<svg width="256" height="104" viewBox="0 0 256 104" fill="none" xmlns="http://www.w3.org/2000/svg">
<rect width="256" height="104" fill="white"/>
<path d="M252.772 82.0896C254.666 89.6633 248.938 97 241.131 97L108.766 97C100.542 97 94.7551 88.9144 97.4077 81.1296L112.565 36.6461C114.053 32.2783 117.914 29.1508 122.496 28.6017L225.496 16.2587C231.499 15.5394 237.099 19.3979 238.566 25.263L252.772 82.0896Z" fill="#76DEFF"/>
<path d="M255.192 89.0399C257.123 96.626 251.391 104 243.563 104L112.38 104C104.267 104 98.4923 96.1175 100.938 88.3824L115.169 43.3727C116.588 38.8832 120.502 35.6387 125.177 35.0762L227.537 22.7591C233.522 22.0388 239.113 25.8709 240.6 31.713L255.192 89.0399Z" fill="#B0ECFF"/>
<path d="M141.773 68.666C141.773 71.7129 141.123 74.0918 139.822 75.8027C138.521 77.502 136.705 78.3516 134.373 78.3516C132.311 78.3516 130.664 77.5605 129.434 75.9785L129.205 78H124.635V51H129.715V60.6855C130.887 59.3145 132.428 58.6289 134.338 58.6289C136.658 58.6289 138.475 59.4844 139.787 61.1953C141.111 62.8945 141.773 65.291 141.773 68.3848V68.666ZM136.693 68.2969C136.693 66.375 136.389 64.9746 135.779 64.0957C135.17 63.2051 134.262 62.7598 133.055 62.7598C131.438 62.7598 130.324 63.4219 129.715 64.7461V72.252C130.336 73.5879 131.461 74.2559 133.09 74.2559C134.73 74.2559 135.809 73.4473 136.324 71.8301C136.57 71.0566 136.693 69.8789 136.693 68.2969ZM155.941 78C155.707 77.543 155.537 76.9746 155.432 76.2949C154.201 77.666 152.602 78.3516 150.633 78.3516C148.77 78.3516 147.223 77.8125 145.992 76.7344C144.773 75.6562 144.164 74.2969 144.164 72.6562C144.164 70.6406 144.908 69.0938 146.396 68.0156C147.896 66.9375 150.059 66.3926 152.883 66.3809H155.221V65.291C155.221 64.4121 154.992 63.709 154.535 63.1816C154.09 62.6543 153.381 62.3906 152.408 62.3906C151.553 62.3906 150.879 62.5957 150.387 63.0059C149.906 63.416 149.666 63.9785 149.666 64.6934H144.586C144.586 63.5918 144.926 62.5723 145.605 61.6348C146.285 60.6973 147.246 59.9648 148.488 59.4375C149.73 58.8984 151.125 58.6289 152.672 58.6289C155.016 58.6289 156.873 59.2207 158.244 60.4043C159.627 61.5762 160.318 63.2285 160.318 65.3613V73.6055C160.33 75.4102 160.582 76.7754 161.074 77.7012V78H155.941ZM151.74 74.4668C152.49 74.4668 153.182 74.3027 153.814 73.9746C154.447 73.6348 154.916 73.1836 155.221 72.6211V69.3516H153.322C150.779 69.3516 149.426 70.2305 149.262 71.9883L149.244 72.2871C149.244 72.9199 149.467 73.4414 149.912 73.8516C150.357 74.2617 150.967 74.4668 151.74 74.4668ZM174.521 72.7441C174.521 72.123 174.211 71.6367 173.59 71.2852C172.98 70.9219 171.996 70.5996 170.637 70.3184C166.113 69.3691 163.852 67.4473 163.852 64.5527C163.852 62.8652 164.549 61.459 165.943 60.334C167.35 59.1973 169.184 58.6289 171.445 58.6289C173.859 58.6289 175.787 59.1973 177.229 60.334C178.682 61.4707 179.408 62.9473 179.408 64.7637H174.328C174.328 64.0371 174.094 63.4395 173.625 62.9707C173.156 62.4902 172.424 62.25 171.428 62.25C170.572 62.25 169.91 62.4434 169.441 62.8301C168.973 63.2168 168.738 63.709 168.738 64.3066C168.738 64.8691 169.002 65.3262 169.529 65.6777C170.068 66.0176 170.971 66.3164 172.236 66.5742C173.502 66.8203 174.568 67.1016 175.436 67.418C178.119 68.4023 179.461 70.1074 179.461 72.5332C179.461 74.2676 178.717 75.6738 177.229 76.752C175.74 77.8184 173.818 78.3516 171.463 78.3516C169.869 78.3516 168.451 78.0703 167.209 77.5078C165.979 76.9336 165.012 76.1543 164.309 75.1699C163.605 74.1738 163.254 73.1016 163.254 71.9531H168.07C168.117 72.8555 168.451 73.5469 169.072 74.0273C169.693 74.5078 170.525 74.748 171.568 74.748C172.541 74.748 173.273 74.5664 173.766 74.2031C174.27 73.8281 174.521 73.3418 174.521 72.7441ZM189.656 70.3711L187.828 72.1992V78H182.748V51H187.828V65.959L188.812 64.6934L193.682 58.9805H199.781L192.908 66.9082L200.379 78H194.543L189.656 70.3711ZM210.381 78.3516C207.592 78.3516 205.318 77.4961 203.561 75.7852C201.814 74.0742 200.941 71.7949 200.941 68.9473V68.4551C200.941 66.5449 201.311 64.8398 202.049 63.3398C202.787 61.8281 203.83 60.668 205.178 59.8594C206.537 59.0391 208.084 58.6289 209.818 58.6289C212.42 58.6289 214.465 59.4492 215.953 61.0898C217.453 62.7305 218.203 65.0566 218.203 68.0684V70.1426H206.092C206.256 71.3848 206.748 72.3809 207.568 73.1309C208.4 73.8809 209.449 74.2559 210.715 74.2559C212.672 74.2559 214.201 73.5469 215.303 72.1289L217.799 74.9238C217.037 76.002 216.006 76.8457 214.705 77.4551C213.404 78.0527 211.963 78.3516 210.381 78.3516ZM209.801 62.7422C208.793 62.7422 207.973 63.082 207.34 63.7617C206.719 64.4414 206.32 65.4141 206.145 66.6797H213.211V66.2754C213.188 65.1504 212.883 64.2832 212.297 63.6738C211.711 63.0527 210.879 62.7422 209.801 62.7422ZM227.186 54.3047V58.9805H230.438V62.707H227.186V72.1992C227.186 72.9023 227.32 73.4062 227.59 73.7109C227.859 74.0156 228.375 74.168 229.137 74.168C229.699 74.168 230.197 74.127 230.631 74.0449V77.8945C229.635 78.1992 228.609 78.3516 227.555 78.3516C223.992 78.3516 222.176 76.5527 222.105 72.9551V62.707H219.328V58.9805H222.105V54.3047H227.186Z" fill="#00376A"/>
<path d="M4.70616 22.4887C2.3641 14.7806 8.13184 7 16.1878 7H112.465C120.623 7 126.403 14.9645 123.874 22.7202L109.633 66.392C107.823 71.9441 102.278 75.3867 96.4991 74.5471L24.5564 64.0955C19.9538 63.4269 16.1521 60.1589 14.8 55.7089L4.70616 22.4887Z" fill="#FFCA7B"/>
<path d="M0.511428 15.3781C-1.74281 7.69406 4.01831 0 12.0261 0H108.465C116.623 0 122.403 7.96445 119.874 15.7202L105.564 59.6041C103.784 65.0618 98.3886 68.4946 92.691 67.7942L20.8452 58.9625C16.0928 58.3783 12.1425 55.0248 10.7946 50.4302L0.511428 15.3781Z" fill="#FFEA7B"/>
<path d="M32.3496 36.3203C32.3496 36.7773 32.2559 37.1992 32.0684 37.5859C31.8809 37.9609 31.6113 38.2832 31.2598 38.5527C30.9082 38.8223 30.4746 39.0332 29.959 39.1855C29.4551 39.3379 28.875 39.4141 28.2188 39.4141C27.4805 39.4141 26.8008 39.332 26.1797 39.168C25.5703 39.0039 25.0488 38.7461 24.6152 38.3945C24.1699 38.043 23.8242 37.5918 23.5781 37.041C23.332 36.4902 23.1973 35.8281 23.1738 35.0547H18.3223C18.3223 36.3789 18.5742 37.5332 19.0781 38.5176C19.5938 39.502 20.291 40.3574 21.1699 41.084C22.0957 41.8223 23.1797 42.3848 24.4219 42.7715C25.6758 43.1465 26.9414 43.334 28.2188 43.334C29.5195 43.334 30.7207 43.1816 31.8223 42.877C32.9238 42.5605 33.873 42.0977 34.6699 41.4883C35.4668 40.8906 36.0879 40.1582 36.5332 39.291C36.9902 38.4121 37.2188 37.4102 37.2188 36.2852C37.2188 34.9844 36.9199 33.8359 36.3223 32.8398C35.7246 31.8438 34.9219 30.9707 33.9141 30.2207C33.2461 29.7637 32.5137 29.3594 31.7168 29.0078C30.9199 28.6562 30.082 28.3574 29.2031 28.1113C28.3828 27.8887 27.6445 27.6484 26.9883 27.3906C26.3438 27.1328 25.793 26.8457 25.3359 26.5293C24.8789 26.2246 24.5273 25.8789 24.2812 25.4922C24.0469 25.1055 23.9297 24.6719 23.9297 24.1914C23.9297 23.7344 24.0176 23.3125 24.1934 22.9258C24.3809 22.5273 24.6504 22.1816 25.002 21.8887C25.3535 21.6074 25.7812 21.3906 26.2852 21.2383C26.8008 21.0742 27.3867 20.9922 28.043 20.9922C28.7578 20.9922 29.3789 21.0918 29.9062 21.291C30.4453 21.4785 30.8965 21.7422 31.2598 22.082C31.6113 22.4336 31.875 22.8496 32.0508 23.3301C32.2383 23.8105 32.3438 24.3379 32.3672 24.9121H37.1836C37.1836 23.7637 36.9609 22.709 36.5156 21.748C36.0703 20.7871 35.4492 19.9551 34.6523 19.252C33.8555 18.5605 32.9004 18.0215 31.7871 17.6348C30.6855 17.248 29.4668 17.0547 28.1309 17.0547C26.8418 17.0547 25.6465 17.2246 24.5449 17.5645C23.4434 17.8926 22.4883 18.3672 21.6797 18.9883C20.8711 19.6094 20.2383 20.3594 19.7812 21.2383C19.3242 22.1172 19.0957 23.0957 19.0957 24.1738C19.0957 25.1113 19.2656 25.9785 19.6055 26.7754C19.957 27.5723 20.4727 28.2988 21.1523 28.9551C21.832 29.6113 22.7051 30.2148 23.7715 30.7656C24.8496 31.3164 26.0977 31.7852 27.5156 32.1719C28.4297 32.418 29.1914 32.6875 29.8008 32.9805C30.4219 33.2617 30.9258 33.5723 31.3125 33.9121C31.6875 34.2637 31.9512 34.6387 32.1035 35.0371C32.2676 35.4355 32.3496 35.8633 32.3496 36.3203ZM45.7441 26.5996V16H40.8574V43H45.7441V29.2715C45.9316 29.0254 46.1367 28.8027 46.3594 28.6035C46.5938 28.4043 46.8516 28.2344 47.1328 28.0938C47.4375 27.9297 47.7773 27.8066 48.1523 27.7246C48.5273 27.6426 48.9316 27.6016 49.3652 27.6016C49.9277 27.6016 50.4316 27.6777 50.877 27.8301C51.3223 27.9707 51.7031 28.1934 52.0195 28.498C52.3359 28.8027 52.5762 29.2012 52.7402 29.6934C52.916 30.1855 53.0039 30.7715 53.0039 31.4512V43H57.8906V31.4863C57.8906 30.0918 57.7207 28.9023 57.3809 27.918C57.0527 26.9219 56.5898 26.1074 55.9922 25.4746C55.3945 24.8418 54.6797 24.3789 53.8477 24.0859C53.0156 23.7812 52.1016 23.6289 51.1055 23.6289C50.4258 23.6289 49.7812 23.7285 49.1719 23.9277C48.5625 24.127 48.0059 24.4082 47.502 24.7715C47.1738 25.0059 46.8574 25.2812 46.5527 25.5977C46.2598 25.9023 45.9902 26.2363 45.7441 26.5996ZM61.8105 33.3145V33.6836C61.8105 35.0781 62.0098 36.3672 62.4082 37.5508C62.8066 38.7227 63.3926 39.7422 64.166 40.6094C64.9277 41.4766 65.8652 42.1562 66.9785 42.6484C68.1035 43.1289 69.3809 43.3691 70.8105 43.3691C72.2285 43.3691 73.4941 43.1289 74.6074 42.6484C75.7207 42.1562 76.6582 41.4766 77.4199 40.6094C78.1816 39.7422 78.7617 38.7227 79.1602 37.5508C79.5586 36.3672 79.7578 35.0781 79.7578 33.6836V33.3145C79.7578 31.9316 79.5586 30.6543 79.1602 29.4824C78.7617 28.2988 78.1816 27.2734 77.4199 26.4062C76.6465 25.5391 75.7031 24.8594 74.5898 24.3672C73.4766 23.875 72.2051 23.6289 70.7754 23.6289C69.3457 23.6289 68.0742 23.875 66.9609 24.3672C65.8594 24.8594 64.9277 25.5391 64.166 26.4062C63.3926 27.2734 62.8066 28.2988 62.4082 29.4824C62.0098 30.6543 61.8105 31.9316 61.8105 33.3145ZM66.6973 33.6836V33.3145C66.6973 32.541 66.7734 31.8086 66.9258 31.1172C67.0781 30.4258 67.3184 29.8164 67.6465 29.2891C67.9746 28.7617 68.3965 28.3457 68.9121 28.041C69.4277 27.7363 70.0488 27.584 70.7754 27.584C71.5137 27.584 72.1406 27.7363 72.6562 28.041C73.1719 28.3457 73.5938 28.7617 73.9219 29.2891C74.2383 29.8164 74.4727 30.4258 74.625 31.1172C74.7773 31.8086 74.8535 32.541 74.8535 33.3145V33.6836C74.8535 34.4805 74.7773 35.2305 74.625 35.9336C74.4727 36.625 74.2383 37.2285 73.9219 37.7441C73.5938 38.2715 73.1719 38.6875 72.6562 38.9922C72.1406 39.2969 71.5254 39.4492 70.8105 39.4492C70.0723 39.4492 69.4395 39.2969 68.9121 38.9922C68.3965 38.6875 67.9746 38.2715 67.6465 37.7441C67.3184 37.2285 67.0781 36.625 66.9258 35.9336C66.7734 35.2305 66.6973 34.4805 66.6973 33.6836ZM84.1699 50.3125H89.0566V41.3477C89.2793 41.5938 89.5137 41.8164 89.7598 42.0156C90.0059 42.2148 90.2637 42.3965 90.5332 42.5605C90.9902 42.8184 91.4824 43.0117 92.0098 43.1406C92.5488 43.2812 93.1348 43.3516 93.7676 43.3516C94.9629 43.3516 96.0234 43.1055 96.9492 42.6133C97.875 42.1211 98.6543 41.4414 99.2871 40.5742C99.9082 39.7188 100.377 38.6992 100.693 37.5156C101.021 36.332 101.186 35.0488 101.186 33.666V33.2969C101.186 31.8555 101.021 30.543 100.693 29.3594C100.377 28.1641 99.9023 27.1387 99.2695 26.2832C98.6367 25.4395 97.8574 24.7891 96.9316 24.332C96.0059 23.8633 94.9395 23.6289 93.7324 23.6289C93.1465 23.6289 92.5957 23.6934 92.0801 23.8223C91.5762 23.9395 91.1133 24.1094 90.6914 24.332C90.3398 24.5195 90.0117 24.7422 89.707 25C89.4023 25.2461 89.1211 25.5273 88.8633 25.8438L88.6875 23.9805H84.1699V50.3125ZM96.2988 33.2969V33.666C96.2988 34.4512 96.2285 35.1953 96.0879 35.8984C95.9473 36.5898 95.7246 37.1992 95.4199 37.7266C95.1152 38.2539 94.7168 38.6699 94.2246 38.9746C93.7441 39.2793 93.1582 39.4316 92.4668 39.4316C92.0332 39.4316 91.6406 39.3906 91.2891 39.3086C90.9375 39.2148 90.627 39.0859 90.3574 38.9219C90.0762 38.7461 89.8242 38.5352 89.6016 38.2891C89.3906 38.043 89.209 37.7676 89.0566 37.4629V29.5176C89.2207 29.1895 89.4141 28.9023 89.6367 28.6562C89.8711 28.4102 90.1406 28.2051 90.4453 28.041C90.7148 27.9004 91.0137 27.7949 91.3418 27.7246C91.6699 27.6426 92.0332 27.6016 92.4316 27.6016C93.123 27.6016 93.709 27.748 94.1895 28.041C94.6816 28.334 95.0859 28.7324 95.4023 29.2363C95.707 29.752 95.9297 30.3613 96.0703 31.0645C96.2227 31.7559 96.2988 32.5 96.2988 33.2969Z" fill="#373737"/>
</svg>
