<svg width="119" height="104" viewBox="0 0 119 104" fill="none" xmlns="http://www.w3.org/2000/svg">
<rect width="119" height="104" fill="white"/>
<path d="M115.772 82.0896C117.666 89.6633 111.937 97 104.131 97L50.4124 97C42.9143 97 37.2526 90.2001 38.611 82.8261L48.4036 29.6661C49.3536 24.5092 53.5418 20.5663 58.7466 19.929L88.4722 16.2891C94.4847 15.5529 100.103 19.4131 101.572 25.2897L115.772 82.0896Z" fill="#76DEFF"/>
<path d="M118.192 89.0399C120.123 96.626 114.391 104 106.563 104L52.5632 104C45.0151 104 39.3413 97.1143 40.7846 89.7055L51.3194 35.6269C52.3199 30.4908 56.5332 26.5951 61.7319 25.9995L90.5896 22.6929C96.553 22.0095 102.104 25.8377 103.585 31.6547L118.192 89.0399Z" fill="#B0ECFF"/>
<path d="M4.70616 22.4887C2.3641 14.7806 8.13183 7 16.1878 7H55.4465C63.3106 7 69.0491 14.4378 67.0539 22.0446L57.6842 57.7665C56.1503 63.6147 50.5051 67.4083 44.5108 66.6193L24.6827 64.0093C20.0139 63.3947 16.1361 60.1062 14.7671 55.6006L4.70616 22.4887Z" fill="#FFCA7B"/>
<path d="M0.511428 15.3781C-1.74281 7.69406 4.01831 0 12.0261 0H51.3973C59.1201 0 64.8322 7.189 63.0868 14.712L54.4215 52.0625C53.0421 58.0082 47.4193 61.9713 41.3559 61.2714L20.9154 58.9119C16.1267 58.3591 12.1337 54.9946 10.7767 50.3691L0.511428 15.3781Z" fill="#FFEA7B"/>
<path d="M89.9297 66.5547C89.9297 70.6172 89.0625 73.7891 87.3281 76.0703C85.5938 78.3359 83.1719 79.4688 80.0625 79.4688C77.3125 79.4688 75.1172 78.4141 73.4766 76.3047L73.1719 79H67.0781V43H73.8516V55.9141C75.4141 54.0859 77.4688 53.1719 80.0156 53.1719C83.1094 53.1719 85.5312 54.3125 87.2812 56.5938C89.0469 58.8594 89.9297 62.0547 89.9297 66.1797V66.5547ZM83.1562 66.0625C83.1562 63.5 82.75 61.6328 81.9375 60.4609C81.125 59.2734 79.9141 58.6797 78.3047 58.6797C76.1484 58.6797 74.6641 59.5625 73.8516 61.3281V71.3359C74.6797 73.1172 76.1797 74.0078 78.3516 74.0078C80.5391 74.0078 81.9766 72.9297 82.6641 70.7734C82.9922 69.7422 83.1562 68.1719 83.1562 66.0625Z" fill="#00376A"/>
<path d="M39.25 38.0391C39.25 38.4297 39.1484 38.7891 38.9453 39.1172C38.7578 39.4453 38.4688 39.7344 38.0781 39.9844C37.6719 40.2344 37.1484 40.4375 36.5078 40.5938C35.8828 40.7344 35.1484 40.8047 34.3047 40.8047C33.6016 40.8047 32.9141 40.7344 32.2422 40.5938C31.5859 40.4531 31 40.2266 30.4844 39.9141C29.9688 39.6172 29.5469 39.2266 29.2188 38.7422C28.8906 38.2422 28.7031 37.6484 28.6562 36.9609H22.4453C22.4453 37.9922 22.6953 39.0234 23.1953 40.0547C23.7109 41.0703 24.4609 41.9766 25.4453 42.7734C26.4297 43.5859 27.6484 44.2422 29.1016 44.7422C30.5703 45.2422 32.2578 45.4922 34.1641 45.4922C35.8984 45.4922 37.4688 45.3047 38.875 44.9297C40.2812 44.5391 41.4844 44 42.4844 43.3125C43.4688 42.625 44.2266 41.8125 44.7578 40.875C45.3047 39.9219 45.5781 38.8828 45.5781 37.7578C45.5781 36.5391 45.3047 35.4922 44.7578 34.6172C44.2266 33.7266 43.4844 32.9688 42.5312 32.3438C41.5781 31.7344 40.4453 31.2344 39.1328 30.8438C37.8203 30.4531 36.3984 30.1328 34.8672 29.8828C33.8047 29.7266 32.9297 29.5469 32.2422 29.3438C31.5547 29.125 31.0156 28.8828 30.625 28.6172C30.2188 28.3672 29.9375 28.0859 29.7812 27.7734C29.625 27.4453 29.5469 27.0938 29.5469 26.7188C29.5469 26.3438 29.6328 25.9922 29.8047 25.6641C29.9922 25.3203 30.2578 25.0234 30.6016 24.7734C30.9766 24.4922 31.4609 24.2734 32.0547 24.1172C32.6484 23.9609 33.3438 23.8828 34.1406 23.8828C35.0781 23.8828 35.875 24 36.5312 24.2344C37.2031 24.4688 37.7344 24.7812 38.125 25.1719C38.4062 25.4688 38.6172 25.8047 38.7578 26.1797C38.8984 26.5391 38.9688 26.9297 38.9688 27.3516H45.4844C45.4844 26.1797 45.2266 25.0938 44.7109 24.0938C44.1953 23.0938 43.4531 22.2266 42.4844 21.4922C41.5 20.7734 40.3047 20.2109 38.8984 19.8047C37.4922 19.3828 35.9062 19.1719 34.1406 19.1719C32.4531 19.1719 30.9375 19.3828 29.5938 19.8047C28.25 20.2266 27.1094 20.7969 26.1719 21.5156C25.2344 22.2344 24.5156 23.0703 24.0156 24.0234C23.5156 24.9766 23.2656 25.9766 23.2656 27.0234C23.2656 28.1016 23.5078 29.0547 23.9922 29.8828C24.4922 30.7109 25.1797 31.4375 26.0547 32.0625C26.9297 32.7031 27.9766 33.25 29.1953 33.7031C30.4297 34.1406 31.7891 34.5078 33.2734 34.8047C34.4453 35.0234 35.4141 35.2422 36.1797 35.4609C36.9453 35.6797 37.5625 35.9141 38.0312 36.1641C38.4844 36.4297 38.7969 36.7109 38.9688 37.0078C39.1562 37.3047 39.25 37.6484 39.25 38.0391Z" fill="#373737"/>
</svg>
